<mxfile host="app.diagrams.net" agent="Mozilla/5.0 (Windows NT 10.0; Win64; x64) AppleWebKit/537.36 (KHTML, like Gecko) Chrome/131.0.0.0 Safari/537.36" version="25.0.3">
  <diagram name="Page-1" id="2YBvvXClWsGukQMizWep">
    <mxGraphModel dx="1500" dy="796" grid="1" gridSize="10" guides="1" tooltips="1" connect="1" arrows="1" fold="1" page="1" pageScale="1" pageWidth="850" pageHeight="1100" math="0" shadow="0">
      <root>
        <mxCell id="0" />
        <mxCell id="1" parent="0" />
        <mxCell id="Iy0Jn0IihA7hDuZPOEbw-1" value="RealTimeTicketingSystem" style="shape=umlLifeline;perimeter=lifelinePerimeter;whiteSpace=wrap;container=1;dropTarget=0;collapsible=0;recursiveResize=0;outlineConnect=0;portConstraint=eastwest;newEdgeStyle={&quot;edgeStyle&quot;:&quot;elbowEdgeStyle&quot;,&quot;elbow&quot;:&quot;vertical&quot;,&quot;curved&quot;:0,&quot;rounded&quot;:0};size=65;" vertex="1" parent="1">
          <mxGeometry x="20" y="20" width="198" height="2007" as="geometry" />
        </mxCell>
        <mxCell id="Iy0Jn0IihA7hDuZPOEbw-2" value="Configuration" style="shape=umlLifeline;perimeter=lifelinePerimeter;whiteSpace=wrap;container=1;dropTarget=0;collapsible=0;recursiveResize=0;outlineConnect=0;portConstraint=eastwest;newEdgeStyle={&quot;edgeStyle&quot;:&quot;elbowEdgeStyle&quot;,&quot;elbow&quot;:&quot;vertical&quot;,&quot;curved&quot;:0,&quot;rounded&quot;:0};size=65;" vertex="1" parent="1">
          <mxGeometry x="292" y="20" width="150" height="2007" as="geometry" />
        </mxCell>
        <mxCell id="Iy0Jn0IihA7hDuZPOEbw-3" value="Data" style="shape=umlLifeline;perimeter=lifelinePerimeter;whiteSpace=wrap;container=1;dropTarget=0;collapsible=0;recursiveResize=0;outlineConnect=0;portConstraint=eastwest;newEdgeStyle={&quot;edgeStyle&quot;:&quot;elbowEdgeStyle&quot;,&quot;elbow&quot;:&quot;vertical&quot;,&quot;curved&quot;:0,&quot;rounded&quot;:0};size=65;" vertex="1" parent="1">
          <mxGeometry x="492" y="20" width="150" height="2007" as="geometry" />
        </mxCell>
        <mxCell id="Iy0Jn0IihA7hDuZPOEbw-4" value="TicketPool" style="shape=umlLifeline;perimeter=lifelinePerimeter;whiteSpace=wrap;container=1;dropTarget=0;collapsible=0;recursiveResize=0;outlineConnect=0;portConstraint=eastwest;newEdgeStyle={&quot;edgeStyle&quot;:&quot;elbowEdgeStyle&quot;,&quot;elbow&quot;:&quot;vertical&quot;,&quot;curved&quot;:0,&quot;rounded&quot;:0};size=65;" vertex="1" parent="1">
          <mxGeometry x="708" y="20" width="150" height="2007" as="geometry" />
        </mxCell>
        <mxCell id="Iy0Jn0IihA7hDuZPOEbw-5" value="Vendor" style="shape=umlLifeline;perimeter=lifelinePerimeter;whiteSpace=wrap;container=1;dropTarget=0;collapsible=0;recursiveResize=0;outlineConnect=0;portConstraint=eastwest;newEdgeStyle={&quot;edgeStyle&quot;:&quot;elbowEdgeStyle&quot;,&quot;elbow&quot;:&quot;vertical&quot;,&quot;curved&quot;:0,&quot;rounded&quot;:0};size=65;" vertex="1" parent="1">
          <mxGeometry x="928" y="20" width="150" height="2007" as="geometry" />
        </mxCell>
        <mxCell id="Iy0Jn0IihA7hDuZPOEbw-6" value="Customer" style="shape=umlLifeline;perimeter=lifelinePerimeter;whiteSpace=wrap;container=1;dropTarget=0;collapsible=0;recursiveResize=0;outlineConnect=0;portConstraint=eastwest;newEdgeStyle={&quot;edgeStyle&quot;:&quot;elbowEdgeStyle&quot;,&quot;elbow&quot;:&quot;vertical&quot;,&quot;curved&quot;:0,&quot;rounded&quot;:0};size=65;" vertex="1" parent="1">
          <mxGeometry x="1128" y="20" width="150" height="2007" as="geometry" />
        </mxCell>
        <mxCell id="Iy0Jn0IihA7hDuZPOEbw-7" value="SystemLogger" style="shape=umlLifeline;perimeter=lifelinePerimeter;whiteSpace=wrap;container=1;dropTarget=0;collapsible=0;recursiveResize=0;outlineConnect=0;portConstraint=eastwest;newEdgeStyle={&quot;edgeStyle&quot;:&quot;elbowEdgeStyle&quot;,&quot;elbow&quot;:&quot;vertical&quot;,&quot;curved&quot;:0,&quot;rounded&quot;:0};size=65;" vertex="1" parent="1">
          <mxGeometry x="1355" y="20" width="150" height="2007" as="geometry" />
        </mxCell>
        <mxCell id="Iy0Jn0IihA7hDuZPOEbw-8" value="alt" style="shape=umlFrame;dashed=1;pointerEvents=0;dropTarget=0;strokeColor=#B3B3B3;height=20;width=30" vertex="1" parent="1">
          <mxGeometry x="920" y="783" width="524" height="215" as="geometry" />
        </mxCell>
        <mxCell id="Iy0Jn0IihA7hDuZPOEbw-9" value="[Tickets added successfully]" style="text;strokeColor=none;fillColor=none;align=center;verticalAlign=middle;whiteSpace=wrap;" vertex="1" parent="Iy0Jn0IihA7hDuZPOEbw-8">
          <mxGeometry x="30" width="494" height="20" as="geometry" />
        </mxCell>
        <mxCell id="Iy0Jn0IihA7hDuZPOEbw-10" value="[Tickets not added]" style="shape=line;dashed=1;whiteSpace=wrap;verticalAlign=top;labelPosition=center;verticalLabelPosition=middle;align=center;strokeColor=#B3B3B3;" vertex="1" parent="Iy0Jn0IihA7hDuZPOEbw-8">
          <mxGeometry y="190" width="524" height="3" as="geometry" />
        </mxCell>
        <mxCell id="Iy0Jn0IihA7hDuZPOEbw-11" value="alt" style="shape=umlFrame;dashed=1;pointerEvents=0;dropTarget=0;strokeColor=#B3B3B3;height=20;width=30" vertex="1" parent="1">
          <mxGeometry x="1192" y="1217" width="324" height="237" as="geometry" />
        </mxCell>
        <mxCell id="Iy0Jn0IihA7hDuZPOEbw-12" value="[Tickets purchased&#xa;successfully]" style="text;strokeColor=none;fillColor=none;align=center;verticalAlign=middle;whiteSpace=wrap;" vertex="1" parent="Iy0Jn0IihA7hDuZPOEbw-11">
          <mxGeometry x="30" width="294" height="20" as="geometry" />
        </mxCell>
        <mxCell id="Iy0Jn0IihA7hDuZPOEbw-13" value="[Tickets not purchased]" style="shape=line;dashed=1;whiteSpace=wrap;verticalAlign=top;labelPosition=center;verticalLabelPosition=middle;align=center;strokeColor=#B3B3B3;" vertex="1" parent="Iy0Jn0IihA7hDuZPOEbw-11">
          <mxGeometry y="212" width="324" height="22" as="geometry" />
        </mxCell>
        <mxCell id="Iy0Jn0IihA7hDuZPOEbw-14" value="par" style="shape=umlFrame;dashed=1;pointerEvents=0;dropTarget=0;strokeColor=#B3B3B3;height=20;width=30" vertex="1" parent="1">
          <mxGeometry x="108" y="628" width="1418" height="890" as="geometry" />
        </mxCell>
        <mxCell id="Iy0Jn0IihA7hDuZPOEbw-15" value="[Vendor Threads]" style="text;strokeColor=none;fillColor=none;align=center;verticalAlign=middle;whiteSpace=wrap;" vertex="1" parent="Iy0Jn0IihA7hDuZPOEbw-14">
          <mxGeometry x="30" width="1388" height="20" as="geometry" />
        </mxCell>
        <mxCell id="Iy0Jn0IihA7hDuZPOEbw-16" value="[Customer Threads]" style="shape=line;dashed=1;whiteSpace=wrap;verticalAlign=top;labelPosition=center;verticalLabelPosition=middle;align=center;strokeColor=#B3B3B3;" vertex="1" parent="Iy0Jn0IihA7hDuZPOEbw-14">
          <mxGeometry y="439" width="1418" height="3" as="geometry" />
        </mxCell>
        <mxCell id="Iy0Jn0IihA7hDuZPOEbw-17" value="loop" style="shape=umlFrame;dashed=1;pointerEvents=0;dropTarget=0;strokeColor=#B3B3B3;height=20;width=40" vertex="1" parent="1">
          <mxGeometry x="98" y="581" width="1438" height="947" as="geometry" />
        </mxCell>
        <mxCell id="Iy0Jn0IihA7hDuZPOEbw-18" value="[While system is running]" style="text;strokeColor=none;fillColor=none;align=center;verticalAlign=middle;whiteSpace=wrap;" vertex="1" parent="Iy0Jn0IihA7hDuZPOEbw-17">
          <mxGeometry x="40" width="1398" height="20" as="geometry" />
        </mxCell>
        <mxCell id="Iy0Jn0IihA7hDuZPOEbw-19" value="alt" style="shape=umlFrame;dashed=1;pointerEvents=0;dropTarget=0;strokeColor=#B3B3B3;height=20;width=30" vertex="1" parent="1">
          <mxGeometry x="108" y="1538" width="686" height="202" as="geometry" />
        </mxCell>
        <mxCell id="Iy0Jn0IihA7hDuZPOEbw-20" value="[All tickets released]" style="text;strokeColor=none;fillColor=none;align=center;verticalAlign=middle;whiteSpace=wrap;" vertex="1" parent="Iy0Jn0IihA7hDuZPOEbw-19">
          <mxGeometry x="30" width="656" height="20" as="geometry" />
        </mxCell>
        <mxCell id="Iy0Jn0IihA7hDuZPOEbw-21" value="[All tickets sold]" style="shape=line;dashed=1;whiteSpace=wrap;verticalAlign=top;labelPosition=center;verticalLabelPosition=middle;align=center;strokeColor=#B3B3B3;" vertex="1" parent="Iy0Jn0IihA7hDuZPOEbw-19">
          <mxGeometry y="106" width="686" height="3" as="geometry" />
        </mxCell>
        <mxCell id="Iy0Jn0IihA7hDuZPOEbw-22" value="Create Configuration" style="verticalAlign=bottom;edgeStyle=elbowEdgeStyle;elbow=vertical;curved=0;rounded=0;endArrow=block;" edge="1" parent="1" source="Iy0Jn0IihA7hDuZPOEbw-1" target="Iy0Jn0IihA7hDuZPOEbw-2">
          <mxGeometry relative="1" as="geometry">
            <Array as="points">
              <mxPoint x="252" y="129" />
            </Array>
          </mxGeometry>
        </mxCell>
        <mxCell id="Iy0Jn0IihA7hDuZPOEbw-23" value="userInput()" style="curved=1;dashed=1;dashPattern=2 3;endArrow=block;rounded=0;" edge="1" parent="1">
          <mxGeometry relative="1" as="geometry">
            <Array as="points">
              <mxPoint x="418" y="161" />
              <mxPoint x="418" y="191" />
            </Array>
            <mxPoint x="366.54761904761926" y="161" as="sourcePoint" />
            <mxPoint x="366.54761904761926" y="191" as="targetPoint" />
          </mxGeometry>
        </mxCell>
        <mxCell id="Iy0Jn0IihA7hDuZPOEbw-24" value="validateConfiguration()" style="curved=1;dashed=1;dashPattern=2 3;endArrow=block;rounded=0;" edge="1" parent="1">
          <mxGeometry relative="1" as="geometry">
            <Array as="points">
              <mxPoint x="418" y="207" />
              <mxPoint x="418" y="237" />
            </Array>
            <mxPoint x="366.54761904761926" y="207" as="sourcePoint" />
            <mxPoint x="366.54761904761926" y="237" as="targetPoint" />
          </mxGeometry>
        </mxCell>
        <mxCell id="Iy0Jn0IihA7hDuZPOEbw-25" value="Return Configuration" style="verticalAlign=bottom;edgeStyle=elbowEdgeStyle;elbow=vertical;curved=0;rounded=0;dashed=1;dashPattern=2 3;endArrow=block;" edge="1" parent="1">
          <mxGeometry relative="1" as="geometry">
            <Array as="points">
              <mxPoint x="255" y="261" />
            </Array>
            <mxPoint x="366.5000000000002" y="261" as="sourcePoint" />
            <mxPoint x="118.32352941176487" y="261" as="targetPoint" />
          </mxGeometry>
        </mxCell>
        <mxCell id="Iy0Jn0IihA7hDuZPOEbw-26" value="connectTo H2 Database ()" style="verticalAlign=bottom;edgeStyle=elbowEdgeStyle;elbow=horizontal;curved=0;rounded=0;endArrow=block;" edge="1" parent="1">
          <mxGeometry relative="1" as="geometry">
            <Array as="points">
              <mxPoint x="352" y="319" />
            </Array>
            <mxPoint x="118.32352941176487" y="319" as="sourcePoint" />
            <mxPoint x="566.5000000000002" y="319" as="targetPoint" />
          </mxGeometry>
        </mxCell>
        <mxCell id="Iy0Jn0IihA7hDuZPOEbw-27" value="createSimulationCollection()" style="verticalAlign=bottom;edgeStyle=elbowEdgeStyle;elbow=vertical;curved=0;rounded=0;endArrow=block;" edge="1" parent="1">
          <mxGeometry relative="1" as="geometry">
            <Array as="points">
              <mxPoint x="352" y="360" />
            </Array>
            <mxPoint x="118.38888888888869" y="360" as="sourcePoint" />
            <mxPoint x="566.5" y="360" as="targetPoint" />
          </mxGeometry>
        </mxCell>
        <mxCell id="Iy0Jn0IihA7hDuZPOEbw-28" value="Create TicketPool" style="verticalAlign=bottom;edgeStyle=elbowEdgeStyle;elbow=vertical;curved=0;rounded=0;endArrow=block;" edge="1" parent="1">
          <mxGeometry relative="1" as="geometry">
            <Array as="points">
              <mxPoint x="459" y="410" />
            </Array>
            <mxPoint x="118.38888888888869" y="410" as="sourcePoint" />
            <mxPoint x="782.5" y="410" as="targetPoint" />
          </mxGeometry>
        </mxCell>
        <mxCell id="Iy0Jn0IihA7hDuZPOEbw-29" value="addTickets()" style="verticalAlign=bottom;edgeStyle=elbowEdgeStyle;elbow=vertical;curved=0;rounded=0;endArrow=block;" edge="1" parent="1" source="Iy0Jn0IihA7hDuZPOEbw-5" target="Iy0Jn0IihA7hDuZPOEbw-4">
          <mxGeometry relative="1" as="geometry">
            <Array as="points">
              <mxPoint x="904" y="709" />
            </Array>
          </mxGeometry>
        </mxCell>
        <mxCell id="Iy0Jn0IihA7hDuZPOEbw-30" value="Ticket addition status" style="verticalAlign=bottom;edgeStyle=elbowEdgeStyle;elbow=vertical;curved=0;rounded=0;dashed=1;dashPattern=2 3;endArrow=block;" edge="1" parent="1" source="Iy0Jn0IihA7hDuZPOEbw-4" target="Iy0Jn0IihA7hDuZPOEbw-5">
          <mxGeometry relative="1" as="geometry">
            <Array as="points">
              <mxPoint x="901" y="763" />
            </Array>
          </mxGeometry>
        </mxCell>
        <mxCell id="Iy0Jn0IihA7hDuZPOEbw-31" value="saveVendorDetails()" style="verticalAlign=bottom;edgeStyle=elbowEdgeStyle;elbow=vertical;curved=0;rounded=0;endArrow=block;" edge="1" parent="1" source="Iy0Jn0IihA7hDuZPOEbw-5" target="Iy0Jn0IihA7hDuZPOEbw-7">
          <mxGeometry relative="1" as="geometry">
            <Array as="points">
              <mxPoint x="1225" y="864" />
            </Array>
          </mxGeometry>
        </mxCell>
        <mxCell id="Iy0Jn0IihA7hDuZPOEbw-32" value="Log vendor details" style="curved=1;dashed=1;dashPattern=2 3;endArrow=block;rounded=0;" edge="1" parent="1" source="Iy0Jn0IihA7hDuZPOEbw-7" target="Iy0Jn0IihA7hDuZPOEbw-7">
          <mxGeometry relative="1" as="geometry">
            <Array as="points">
              <mxPoint x="1481" y="918" />
              <mxPoint x="1481" y="948" />
            </Array>
          </mxGeometry>
        </mxCell>
        <mxCell id="Iy0Jn0IihA7hDuZPOEbw-33" value="Stop vendor thread" style="verticalAlign=bottom;edgeStyle=elbowEdgeStyle;elbow=vertical;curved=0;rounded=0;dashed=1;dashPattern=2 3;endArrow=block;" edge="1" parent="1" source="Iy0Jn0IihA7hDuZPOEbw-5" target="Iy0Jn0IihA7hDuZPOEbw-1">
          <mxGeometry relative="1" as="geometry">
            <Array as="points">
              <mxPoint x="572" y="1042" />
            </Array>
          </mxGeometry>
        </mxCell>
        <mxCell id="Iy0Jn0IihA7hDuZPOEbw-34" value="removeTickets()" style="verticalAlign=bottom;edgeStyle=elbowEdgeStyle;elbow=vertical;curved=0;rounded=0;endArrow=block;" edge="1" parent="1" source="Iy0Jn0IihA7hDuZPOEbw-6" target="Iy0Jn0IihA7hDuZPOEbw-4">
          <mxGeometry relative="1" as="geometry">
            <Array as="points">
              <mxPoint x="1004" y="1143" />
            </Array>
          </mxGeometry>
        </mxCell>
        <mxCell id="Iy0Jn0IihA7hDuZPOEbw-35" value="Ticket purchase status" style="verticalAlign=bottom;edgeStyle=elbowEdgeStyle;elbow=vertical;curved=0;rounded=0;dashed=1;dashPattern=2 3;endArrow=block;" edge="1" parent="1" source="Iy0Jn0IihA7hDuZPOEbw-4" target="Iy0Jn0IihA7hDuZPOEbw-6">
          <mxGeometry relative="1" as="geometry">
            <Array as="points">
              <mxPoint x="1001" y="1197" />
            </Array>
          </mxGeometry>
        </mxCell>
        <mxCell id="Iy0Jn0IihA7hDuZPOEbw-36" value="saveCustomerDetails()" style="verticalAlign=bottom;edgeStyle=elbowEdgeStyle;elbow=vertical;curved=0;rounded=0;endArrow=block;" edge="1" parent="1" source="Iy0Jn0IihA7hDuZPOEbw-6" target="Iy0Jn0IihA7hDuZPOEbw-7">
          <mxGeometry relative="1" as="geometry">
            <Array as="points">
              <mxPoint x="1325" y="1320" />
            </Array>
          </mxGeometry>
        </mxCell>
        <mxCell id="Iy0Jn0IihA7hDuZPOEbw-37" value="Log customer details" style="curved=1;dashed=1;dashPattern=2 3;endArrow=block;rounded=0;" edge="1" parent="1" source="Iy0Jn0IihA7hDuZPOEbw-7" target="Iy0Jn0IihA7hDuZPOEbw-7">
          <mxGeometry relative="1" as="geometry">
            <Array as="points">
              <mxPoint x="1481" y="1374" />
              <mxPoint x="1481" y="1404" />
            </Array>
          </mxGeometry>
        </mxCell>
        <mxCell id="Iy0Jn0IihA7hDuZPOEbw-38" value="Stop customer thread" style="verticalAlign=bottom;edgeStyle=elbowEdgeStyle;elbow=vertical;curved=0;rounded=0;dashed=1;dashPattern=2 3;endArrow=block;" edge="1" parent="1" source="Iy0Jn0IihA7hDuZPOEbw-6" target="Iy0Jn0IihA7hDuZPOEbw-1">
          <mxGeometry relative="1" as="geometry">
            <Array as="points">
              <mxPoint x="672" y="1498" />
            </Array>
          </mxGeometry>
        </mxCell>
        <mxCell id="Iy0Jn0IihA7hDuZPOEbw-39" value="Check areAllTicketsReleased()" style="verticalAlign=bottom;edgeStyle=elbowEdgeStyle;elbow=vertical;curved=0;rounded=0;endArrow=block;" edge="1" parent="1" source="Iy0Jn0IihA7hDuZPOEbw-1" target="Iy0Jn0IihA7hDuZPOEbw-4">
          <mxGeometry relative="1" as="geometry">
            <Array as="points">
              <mxPoint x="459" y="1619" />
            </Array>
          </mxGeometry>
        </mxCell>
        <mxCell id="Iy0Jn0IihA7hDuZPOEbw-40" value="Check areAllTicketsSold()" style="verticalAlign=bottom;edgeStyle=elbowEdgeStyle;elbow=vertical;curved=0;rounded=0;endArrow=block;" edge="1" parent="1" source="Iy0Jn0IihA7hDuZPOEbw-1" target="Iy0Jn0IihA7hDuZPOEbw-4">
          <mxGeometry relative="1" as="geometry">
            <Array as="points">
              <mxPoint x="459" y="1720" />
            </Array>
          </mxGeometry>
        </mxCell>
        <mxCell id="Iy0Jn0IihA7hDuZPOEbw-41" value="Set isRunning to false" style="curved=1;endArrow=block;rounded=0;" edge="1" parent="1" source="Iy0Jn0IihA7hDuZPOEbw-1" target="Iy0Jn0IihA7hDuZPOEbw-1">
          <mxGeometry relative="1" as="geometry">
            <Array as="points">
              <mxPoint x="170" y="1784" />
              <mxPoint x="170" y="1814" />
            </Array>
          </mxGeometry>
        </mxCell>
        <mxCell id="Iy0Jn0IihA7hDuZPOEbw-42" value="saveConfigurationToFile()" style="verticalAlign=bottom;edgeStyle=elbowEdgeStyle;elbow=vertical;curved=0;rounded=0;endArrow=block;" edge="1" parent="1" source="Iy0Jn0IihA7hDuZPOEbw-1" target="Iy0Jn0IihA7hDuZPOEbw-2">
          <mxGeometry relative="1" as="geometry">
            <Array as="points">
              <mxPoint x="252" y="1868" />
            </Array>
          </mxGeometry>
        </mxCell>
        <mxCell id="Iy0Jn0IihA7hDuZPOEbw-43" value="Close MongoDB connection" style="verticalAlign=bottom;edgeStyle=elbowEdgeStyle;elbow=vertical;curved=0;rounded=0;endArrow=block;" edge="1" parent="1" source="Iy0Jn0IihA7hDuZPOEbw-1" target="Iy0Jn0IihA7hDuZPOEbw-3">
          <mxGeometry relative="1" as="geometry">
            <Array as="points">
              <mxPoint x="352" y="1922" />
            </Array>
          </mxGeometry>
        </mxCell>
        <mxCell id="Iy0Jn0IihA7hDuZPOEbw-45" value="" style="endArrow=none;html=1;rounded=0;" edge="1" parent="1">
          <mxGeometry width="50" height="50" relative="1" as="geometry">
            <mxPoint x="150" y="500" as="sourcePoint" />
            <mxPoint x="200" y="450" as="targetPoint" />
          </mxGeometry>
        </mxCell>
      </root>
    </mxGraphModel>
  </diagram>
</mxfile>
